<svg width="26" height="26" viewBox="0 0 26 26" fill="none" xmlns="http://www.w3.org/2000/svg">
<path fill-rule="evenodd" clip-rule="evenodd" d="M15.6234 23.625C15.6234 22.7264 14.8949 21.9978 13.9962 21.9978H12.0038C11.5722 21.9978 11.1584 22.1693 10.8532 22.4744C10.5481 22.7796 10.3766 23.1934 10.3766 23.625C10.3766 24.5236 11.1051 25.2521 12.0038 25.2521H13.9962C14.8949 25.2521 15.6234 24.5236 15.6234 23.625ZM3.42068 19.4293C3.69246 19.45 4.02127 19.462 4.35155 19.4426C4.5275 20.335 4.96463 21.1626 5.61712 21.8151C6.48334 22.6813 7.65817 23.1679 8.88316 23.1679H9.50402C9.47664 23.3178 9.46258 23.4707 9.46258 23.625C9.46258 23.781 9.47664 23.9338 9.50361 24.082H8.88316C7.41574 24.082 6.00839 23.4991 4.97077 22.4615C4.14299 21.6336 3.60455 20.5705 3.42068 19.4293ZM2.95572 18.4567C2.23407 18.335 1.56254 17.9919 1.03832 17.4676C0.373496 16.8028 0 15.9011 0 14.9609V12.8005C0 11.8603 0.373496 10.9586 1.03832 10.2937C1.70315 9.62892 2.60487 9.25538 3.54509 9.25538H3.78107C4.15827 4.49433 8.14166 0.748047 13 0.748047C17.8583 0.748047 21.8417 4.49433 22.2189 9.25538H22.4549C23.3951 9.25538 24.2968 9.62892 24.9617 10.2937C25.6265 10.9586 26 11.8603 26 12.8005V14.9609C26 15.9011 25.6265 16.8028 24.9617 17.4676C24.2968 18.1325 23.3951 18.506 22.4549 18.506H21.4088C20.9749 18.506 20.6232 18.1543 20.6232 17.7204V9.99622C20.6232 5.78605 17.2102 2.37304 13 2.37304C8.78983 2.37304 5.37682 5.78605 5.37682 9.99622V17.7204C5.37682 18.0268 5.20147 18.2922 4.94564 18.4217C4.2414 18.6661 3.14925 18.4893 2.95572 18.4567Z" fill="#2D3748"/>
</svg>
