<svg width="62" height="62" viewBox="0 0 62 62" fill="none" xmlns="http://www.w3.org/2000/svg">
<g clip-path="url(#clip0_7020_4234)">
<path d="M52.3938 45.7195L51.3881 45.3538C52.4853 43.5253 53.1253 41.971 55.5024 41.2395C60.6224 39.8681 62.9081 33.5595 59.6167 29.171C59.251 28.6224 58.4281 28.7138 58.0624 29.2624L55.7767 33.1024L53.0338 31.4567L55.3195 27.6167C55.6853 27.0681 55.3195 26.3367 54.6795 26.2453C49.1938 25.331 44.8053 30.2681 45.9938 35.4795C46.2681 36.7595 46.0853 38.131 45.4453 39.2281L43.6167 42.3367L43.0681 42.1538C40.3253 41.1481 38.4967 38.4967 38.4967 35.571V34.8395C41.331 31.731 43.251 26.7938 43.7081 21.1253H44.7138C46.3595 21.1253 47.6395 19.8453 47.6395 18.1995C47.6395 16.7367 46.5424 15.5481 45.0795 15.2738C44.9881 9.97098 41.7881 5.2167 36.851 3.02241C36.6681 1.65098 35.571 0.828125 34.4738 0.828125H27.6167C26.4281 0.828125 25.331 1.65098 25.2395 3.02241C20.3024 5.2167 17.1024 9.97098 16.9195 15.3653C15.4567 15.5481 14.3595 16.7367 14.3595 18.291C14.3595 19.9367 15.6395 21.2167 17.2853 21.2167H18.3824C18.8395 26.9767 20.7595 31.8224 23.5938 34.931V35.6624C23.5938 37.7653 22.5881 39.7767 21.0338 41.0567V40.9653C21.0338 40.5995 20.7595 40.2338 20.3938 40.1424L18.931 39.5938C18.7481 39.2281 18.6567 38.8624 18.4738 38.4967L19.1138 37.1253C19.2967 36.7595 19.2053 36.3938 18.931 36.1195C18.0167 35.2053 18.0167 35.2053 17.1024 34.291C16.8281 34.0167 16.371 33.9253 16.0967 34.1081L14.6338 34.6567C14.2681 34.4738 13.9024 34.3824 13.5367 34.1995L12.9881 32.7367C12.8967 32.371 12.531 32.0967 12.1653 32.0967H9.60527C9.23955 32.0967 8.87384 32.371 8.78241 32.7367L8.23384 34.1995C7.86812 34.3824 7.50241 34.4738 7.13669 34.6567L5.76527 34.0167C5.39955 33.8338 5.03384 33.9253 4.75955 34.1995C3.84527 35.1138 3.84527 35.1138 2.93098 36.0281C2.65669 36.3024 2.56527 36.7595 2.74812 37.0338L3.38812 38.4053C3.20527 38.771 3.11384 39.1367 2.93098 39.5024L1.46812 40.051C1.10241 40.2338 0.828125 40.5995 0.828125 40.9653V43.5253C0.828125 43.891 1.10241 44.2567 1.46812 44.3481L2.93098 44.8967C3.11384 45.2624 3.20527 45.6281 3.38812 45.9938L2.65669 47.3653C2.47384 47.731 2.56527 48.0967 2.83955 48.371C3.66241 49.1938 3.75384 49.2853 4.39384 49.9253C3.47955 51.4795 2.93098 53.3081 2.93098 55.2281V60.2567C2.93098 60.8053 3.29669 61.171 3.84527 61.171H58.1538C58.7024 61.171 59.0681 60.8053 59.0681 60.2567V55.3195C59.0681 51.0224 56.4167 47.2738 52.3938 45.7195ZM47.8224 35.2053C47.091 31.731 49.5595 28.3481 53.0338 28.0738L51.0224 31.4567C50.7481 31.9138 50.931 32.4624 51.2967 32.7367L55.5938 35.2967C56.051 35.571 56.5995 35.3881 56.8738 35.0224L58.8853 31.6395C60.2567 34.8395 58.5195 38.6795 55.0453 39.5938C51.9367 40.5081 51.0224 42.5195 49.651 44.8053L45.2624 43.1595C46.9995 40.2338 48.5538 38.4053 47.8224 35.2053ZM36.6681 4.94241C40.5995 6.95384 43.0681 10.8853 43.3424 15.3653H35.2967L36.6681 4.94241ZM27.5253 2.65669H34.3824C34.7481 2.65669 35.0224 3.02241 35.0224 3.38812L33.4681 15.3653H28.531L26.9767 3.38812C26.8853 3.02241 27.1595 2.65669 27.5253 2.65669ZM25.331 4.94241L26.7024 15.3653H18.6567C18.8395 10.8853 21.3995 6.95384 25.331 4.94241ZM17.2853 19.3881C16.6453 19.3881 16.1881 18.931 16.1881 18.291C16.1881 17.651 16.6453 17.1938 17.2853 17.1938H44.7138C45.3538 17.1938 45.811 17.651 45.811 18.291C45.811 18.931 45.3538 19.3881 44.7138 19.3881H17.2853ZM20.211 21.2167H41.8795C41.0567 29.9938 36.4853 36.7595 30.9995 36.7595C25.5138 36.7595 20.9424 29.9938 20.211 21.2167ZM5.2167 45.7195C4.94241 44.9881 4.75955 44.6224 4.48527 43.891C4.39384 43.6167 4.21098 43.4338 3.93669 43.3424L2.65669 42.8853V41.6053L3.93669 41.1481C4.21098 41.0567 4.39384 40.8738 4.48527 40.5995C5.58241 38.0395 5.58241 38.6795 4.66812 36.851C5.03384 36.4853 5.21669 36.3024 5.58241 35.9367L6.67955 36.4853C6.95384 36.5767 7.13669 36.5767 7.41098 36.4853C8.14241 36.211 8.50812 36.0281 9.23955 35.7538C9.51384 35.6624 9.69669 35.4795 9.78812 35.2053L10.2453 33.9253H11.5253L11.9824 35.2053C12.0738 35.4795 12.2567 35.6624 12.531 35.7538C13.2624 36.0281 13.6281 36.211 14.3595 36.4853C14.6338 36.5767 14.9081 36.5767 15.091 36.4853L16.2795 35.9367L17.1938 36.851L16.6453 38.0395C16.5538 38.3138 16.5538 38.4967 16.6453 38.771C17.7424 41.331 17.2853 40.8738 19.2053 41.6053V42.1538C18.4738 42.4281 20.6681 41.6053 15.731 43.4338C16.5538 40.2338 14.1767 37.2167 10.9767 37.2167C6.13098 37.2167 4.11955 43.6167 8.32527 46.2681C7.31955 46.8167 6.49669 47.5481 5.67384 48.371L5.58241 48.4624C5.21669 48.0967 5.03384 47.9138 4.66812 47.5481L5.2167 46.3595C5.30812 46.1767 5.30812 45.9024 5.2167 45.7195ZM12.9881 44.4395L10.7024 45.2624C9.0567 45.171 7.77669 43.7995 7.77669 42.1538C7.77669 40.4167 9.14812 39.0453 10.8853 39.0453C13.6281 39.1367 15.091 42.5195 12.9881 44.4395ZM30.0853 59.3424H4.75955V55.3195C4.75955 51.8453 6.95384 48.7367 10.1538 47.4567C19.8453 43.891 19.9367 43.891 20.9424 43.251L29.9938 52.3024V59.3424H30.0853ZM22.4967 42.1538C24.051 40.691 25.0567 38.6795 25.331 36.5767C28.8967 39.3195 33.1938 39.3195 36.7595 36.5767C36.9424 38.771 38.0395 40.691 39.5938 42.1538L30.9995 50.6567L22.4967 42.1538ZM57.2395 59.3424H31.9138V52.3024L40.9653 43.251C41.8795 43.7995 41.5138 43.6167 51.7538 47.4567C55.0453 48.6453 57.1481 51.8453 57.1481 55.3195V59.3424H57.2395Z" fill="#2D3748"/>
</g>
<defs>
<clipPath id="clip0_7020_4234">
<rect width="62" height="62" fill="white"/>
</clipPath>
</defs>
</svg>
