<svg width="62" height="62" viewBox="0 0 62 62" fill="none" xmlns="http://www.w3.org/2000/svg">
<g clip-path="url(#clip0_7020_4237)">
<path d="M60.4929 24.0296L55.4916 22.5039C54.8948 20.2817 53.9583 18.1639 52.7002 16.1936L55.0911 11.7992C55.2939 11.4249 55.2177 10.9709 54.9012 10.6742L49.816 5.91035C49.4995 5.61367 49.0151 5.54223 48.616 5.73234L43.9298 7.97258C41.8309 6.79555 39.5731 5.91883 37.2016 5.35816L35.5753 0.670625C35.4371 0.272227 35.0405 0.000976562 34.5936 0.000976562H27.4068C26.9599 0.000976562 26.5634 0.271016 26.4251 0.669414L24.7976 5.35816C22.4301 5.91762 20.1709 6.79433 18.0668 7.97137L13.3793 5.73234C12.9802 5.54223 12.4971 5.61367 12.1806 5.91035L7.09923 10.6754C6.78277 10.9721 6.70657 11.4262 6.90936 11.7992L9.29765 16.1936C8.04215 18.1663 7.10569 20.2842 6.51023 22.5039L1.5089 24.0296C1.08394 24.1592 0.795898 24.531 0.795898 24.9499V31.6876C0.795898 32.1066 1.08394 32.4783 1.51019 32.6079L6.51023 34.1324C7.10698 36.3509 8.04215 38.4676 9.29894 40.4403L6.91065 44.8335C6.70656 45.2077 6.78407 45.6618 7.10052 45.9585L12.182 50.726C12.4984 51.0226 12.9828 51.0953 13.3819 50.9039L18.0694 48.665C19.1324 49.2583 20.238 49.7778 21.3683 50.2149C21.3721 50.2573 21.3735 50.3009 21.3773 50.3445C21.3838 50.4317 21.3902 50.5177 21.3941 50.6049C21.4005 50.7586 21.4045 50.9149 21.4045 51.0723V54.2195C21.4045 54.5259 21.4251 54.8286 21.4625 55.1265C21.4651 55.1725 21.4716 55.2185 21.4806 55.2621C22.0257 59.0596 25.5029 61.9985 29.7008 61.9985H32.3036C36.5015 61.9985 39.9786 59.0596 40.5237 55.2621C40.5341 55.2185 40.5392 55.1725 40.5418 55.1265C40.5792 54.8286 40.5999 54.5271 40.5999 54.2195V51.0723C40.5999 50.9149 40.6038 50.7599 40.6102 50.606C40.6154 50.4753 40.6245 50.3445 40.636 50.2149C41.7741 49.7742 42.8784 49.2546 43.9324 48.6625L48.6185 50.9039C48.7671 50.9754 48.9285 51.0093 49.0875 51.0093C49.3561 51.0093 49.6196 50.9112 49.8186 50.7247L52.358 48.3404L54.9026 45.9585C55.219 45.6618 55.2965 45.2077 55.0924 44.8335L52.7002 40.4403C53.9596 38.464 54.896 36.3473 55.4916 34.1337L60.4915 32.6091C60.9166 32.4796 61.2059 32.1078 61.2059 31.6888V24.9511C61.2045 24.531 60.9178 24.1592 60.4929 24.0296ZM23.4672 54.096V51.0723C23.4672 50.8991 23.4634 50.726 23.4556 50.554C23.4491 50.4026 23.4388 50.2537 23.4285 50.1047C23.4272 50.0914 23.4272 50.0769 23.4259 50.0635H38.5745C38.5745 50.0708 38.5733 50.0793 38.5733 50.0866C38.5616 50.2416 38.5513 50.3978 38.5449 50.5552C38.5371 50.7271 38.5332 50.9003 38.5332 51.0735V54.0972H23.4672V54.096ZM30.999 32.9094C30.2601 32.9094 29.6595 32.3439 29.6595 31.65C29.6595 30.9562 30.2601 30.3906 30.999 30.3906C31.7404 30.3906 32.3423 30.9562 32.3423 31.65C32.3423 32.3439 31.739 32.9094 30.999 32.9094ZM38.8949 48.126H36.2638V41.5495H38.6586C39.2295 41.5495 39.6905 41.116 39.6905 40.5819V37.4904C41.0675 37.0799 42.0672 35.8713 42.0672 34.4485C42.0672 32.6866 40.5379 31.2528 38.6586 31.2528C36.7791 31.2528 35.2498 32.6866 35.2498 34.4485C35.2498 35.8713 36.2495 37.0799 37.6265 37.4904V39.6144H35.2317C34.6608 39.6144 34.1997 40.0479 34.1997 40.5819V48.1273H32.0323V34.6956C33.4092 34.285 34.409 33.0753 34.409 31.65C34.409 29.8882 32.8796 28.4544 31.0002 28.4544C29.1221 28.4544 27.5954 29.8882 27.5954 31.65C27.5954 33.0741 28.5939 34.2839 29.9682 34.6956V48.1273H27.8008V40.5819C27.8008 40.0467 27.3384 39.6144 26.7687 39.6144H24.3779V37.4904C25.7522 37.0799 26.7506 35.8713 26.7506 34.4485C26.7506 32.6866 25.2226 31.2528 23.3458 31.2528C21.4665 31.2528 19.9371 32.6866 19.9371 34.4485C19.9371 35.8713 20.9369 37.0799 22.3138 37.4904V40.5819C22.3138 41.1171 22.7762 41.5495 23.3458 41.5495H25.7367V48.126H23.1081C22.6457 46.3266 21.739 44.6907 20.3634 43.1794C19.8467 42.6127 19.3313 42.0726 18.8327 41.5495C15.6953 38.2617 13.2179 35.6655 13.2179 29.6205C13.2179 20.4271 21.1952 12.9483 31.0016 12.9483C40.8091 12.9483 48.789 20.4271 48.789 29.6205C48.789 35.6655 46.3116 38.2617 43.1742 41.5495C42.6756 42.0713 42.1602 42.6114 41.6449 43.1781C40.264 44.6882 39.3561 46.3242 38.8949 48.126ZM38.6586 35.7042C37.9171 35.7042 37.3152 35.1412 37.3152 34.4485C37.3152 33.7535 37.9184 33.1892 38.6586 33.1892C39.3986 33.1892 40.0019 33.7546 40.0019 34.4485C40.0019 35.1412 39.3986 35.7042 38.6586 35.7042ZM23.342 35.7042C22.6006 35.7042 21.9986 35.1412 21.9986 34.4485C21.9986 33.7535 22.6018 33.1892 23.342 33.1892C24.0808 33.1892 24.6827 33.7546 24.6827 34.4485C24.6827 35.1412 24.0808 35.7042 23.342 35.7042ZM32.3022 60.0623H29.6996C26.938 60.0623 24.5923 58.3694 23.776 56.0323H38.2258C37.4095 58.3681 35.0638 60.0623 32.3022 60.0623ZM59.1405 30.9853L54.3019 32.4602C53.9557 32.5655 53.6948 32.8343 53.6147 33.1661C53.04 35.5408 52.0389 37.7992 50.6426 39.882C50.4489 40.1702 50.432 40.5335 50.5974 40.8374L52.9108 45.0878L48.886 48.8611L44.3522 46.6923C44.028 46.5373 43.6405 46.5542 43.3318 46.7359C42.6175 47.1585 41.8748 47.5436 41.1127 47.8911C41.5402 46.6511 42.2365 45.5068 43.2116 44.4375C43.7128 43.8878 44.2191 43.3562 44.71 42.8415C47.8681 39.5321 50.8505 36.4054 50.8505 29.6217C50.8505 19.3614 41.9446 11.0132 30.9976 11.0132C20.0534 11.0132 11.1486 19.3603 11.1486 29.6217C11.1486 36.4054 14.131 39.5321 17.2892 42.8415C17.7801 43.3562 18.2864 43.8866 18.7876 44.4375C19.7627 45.508 20.4576 46.6524 20.8852 47.8924C20.1257 47.546 19.3817 47.1621 18.6596 46.7383C18.3522 46.5579 17.9661 46.5421 17.6431 46.696L13.1094 48.8611L9.0884 45.089L11.3992 40.8362C11.5632 40.5323 11.5465 40.1702 11.3527 39.882C9.96027 37.8064 8.96052 35.5468 8.38444 33.1661C8.30436 32.8343 8.04344 32.5655 7.69727 32.4602L2.85869 30.9853V25.6535L7.69469 24.1798C8.04086 24.0744 8.30307 23.8056 8.38315 23.4726C8.95923 21.0906 9.95769 18.831 11.3514 16.7543C11.5451 16.4661 11.562 16.1028 11.3979 15.8001L9.08969 11.5473L13.1106 7.77762L17.6457 9.94401C17.9699 10.099 18.3561 10.0821 18.6636 9.90042C20.8787 8.59379 23.289 7.65773 25.8297 7.11766C26.1849 7.04258 26.4716 6.79676 26.5841 6.47223L28.156 1.93726H33.8432L35.4165 6.47344C35.5288 6.79676 35.8155 7.04258 36.1695 7.11766C38.714 7.66016 41.1243 8.59621 43.3318 9.90042C43.6392 10.0821 44.0254 10.099 44.3496 9.94401L48.886 7.77762L52.9095 11.5473L50.5961 15.7964C50.4308 16.1004 50.4475 16.4649 50.6426 16.7531C52.0376 18.8262 53.0374 21.0871 53.6135 23.4702C53.6936 23.8031 53.9557 24.072 54.3019 24.1774L59.1379 25.651V30.9853H59.1405Z" fill="#2D3748"/>
</g>
<defs>
<clipPath id="clip0_7020_4237">
<rect width="62" height="62" fill="white"/>
</clipPath>
</defs>
</svg>
