<svg width="62" height="62" viewBox="0 0 62 62" fill="none" xmlns="http://www.w3.org/2000/svg">
<g clip-path="url(#clip0_7020_4244)">
<mask id="mask0_7020_4244" style="mask-type:luminance" maskUnits="userSpaceOnUse" x="0" y="0" width="62" height="62">
<path d="M62 0H0V62H62V0Z" fill="white"/>
</mask>
<g mask="url(#mask0_7020_4244)">
<path d="M54.8595 43.754C54.5195 43.613 54.128 43.6908 53.8678 43.951L43.9228 53.896C43.6626 54.1564 43.5846 54.5477 43.7256 54.8878C43.8663 55.228 44.1984 55.4495 44.5664 55.4495H54.5114C55.014 55.4495 55.4213 55.0422 55.4213 54.5395V44.5945C55.4213 44.2265 55.1996 43.8948 54.8595 43.754ZM46.763 53.6297L53.601 46.7915V53.6297H46.763Z" fill="#2D3748"/>
<path d="M61.4385 29.1679C61.0983 29.0269 60.707 29.1047 60.4466 29.365L57.7211 32.0905V13.5593C57.7211 13.0567 57.3137 12.6493 56.8112 12.6493H49.8191L52.3572 10.1112C52.3575 10.1108 52.358 10.1103 52.3583 10.11L54.8039 7.66436C55.3279 7.14038 55.6164 6.44336 55.6164 5.70226C55.6164 4.96117 55.3279 4.2644 54.8039 3.74019L51.9758 0.912151C51.4519 0.388177 50.7548 0.0996094 50.0138 0.0996094C49.2727 0.0996094 48.5758 0.388177 48.0516 0.912151L45.6048 3.35897L42.6482 6.31561L36.3146 12.6492H8.06728V3.64645C8.06728 3.14379 7.6598 2.73644 7.15727 2.73644C3.2108 2.73667 0 5.94724 0 9.89394V48.5454C0 48.6127 0.00775002 48.6781 0.0215547 48.741C0.14725 50.4156 0.871755 51.9715 2.08258 53.1527C3.37683 54.415 5.08534 55.1102 6.89351 55.1102H34.7013L29.4642 60.3474C29.2039 60.6078 29.126 60.999 29.2668 61.3391C29.4076 61.6792 29.7396 61.9009 30.1076 61.9009H61.0901C61.5927 61.9009 62.0001 61.4935 62.0001 60.9909V30.0086C62.0001 29.6406 61.7783 29.3087 61.4385 29.1679ZM49.3389 2.19926C49.7109 1.82701 50.317 1.82701 50.689 2.19926L53.5171 5.02741C53.8894 5.39953 53.8894 6.00537 53.5171 6.37761L51.7139 8.18094L47.5354 4.00259L49.3389 2.19926ZM46.2485 5.28958L50.4268 9.4678L48.7571 11.1376L44.5789 6.95934L46.2485 5.28958ZM60.1803 40.234H58.5014C57.9986 40.234 57.5914 40.6414 57.5914 41.1441C57.5914 41.6467 57.9986 42.0541 58.5014 42.0541H60.1803V44.7963H58.5014C57.9986 44.7963 57.5914 45.2037 57.5914 45.7064C57.5914 46.209 57.9986 46.6165 58.5014 46.6165H60.1803V49.3586H58.5014C57.9986 49.3586 57.5914 49.7659 57.5914 50.2686C57.5914 50.7712 57.9986 51.1786 58.5014 51.1786H60.1803V53.9209H58.5014C57.9986 53.9209 57.5914 54.3284 57.5914 54.831C57.5914 55.3337 57.9986 55.7409 58.5014 55.7409H60.1803V60.0812H32.3045L41.4965 50.8893C41.8519 50.5338 41.8519 49.9578 41.4965 49.6024C41.4557 49.5616 41.4119 49.5262 41.366 49.4947C41.0117 49.2521 40.5241 49.2878 40.2094 49.6024L36.5214 53.2903H6.89365C4.13367 53.2903 1.91183 51.1357 1.82441 48.3807C1.82961 48.2076 1.84305 48.0363 1.86461 47.8666C1.86472 47.8658 1.86484 47.8647 1.86497 47.8638C1.87515 47.7832 1.88737 47.7031 1.9013 47.6234C1.90287 47.6144 1.90457 47.6052 1.90615 47.5962C1.91886 47.5251 1.93315 47.4544 1.94876 47.3839C1.95313 47.3643 1.95772 47.3447 1.96233 47.3252C1.97613 47.2655 1.99103 47.2063 2.00701 47.1474C2.01574 47.1154 2.02482 47.0838 2.03413 47.0519C2.04746 47.0057 2.06126 46.9595 2.07591 46.9139C2.09057 46.8683 2.10618 46.8231 2.12205 46.778C2.13307 46.7464 2.14397 46.7148 2.15584 46.6833C2.178 46.6238 2.20149 46.5648 2.22571 46.5063C2.23261 46.4895 2.2394 46.4724 2.24654 46.4556C2.27766 46.3829 2.30999 46.3112 2.34413 46.2402C2.34559 46.2371 2.34692 46.2341 2.34838 46.231C3.06017 44.7581 4.42913 43.6599 6.07201 43.3191C6.07662 43.3182 6.08123 43.317 6.08582 43.3161C6.16115 43.3008 6.23719 43.2875 6.31373 43.2753C6.32644 43.2732 6.33915 43.2707 6.35211 43.2688C6.42125 43.2583 6.49112 43.25 6.561 43.2422C6.58061 43.24 6.60011 43.2369 6.61984 43.235C6.68729 43.2282 6.75536 43.2237 6.82341 43.2195C6.84496 43.2181 6.86651 43.2159 6.88807 43.2147C6.9772 43.2103 7.06704 43.2079 7.15727 43.2079C7.6598 43.2079 8.06728 42.8007 8.06728 42.298V35.6997C8.06728 35.1969 7.6598 34.7897 7.15727 34.7897C6.65473 34.7897 6.24724 35.1969 6.24724 35.6997V41.4452C4.71055 41.6396 3.28418 42.325 2.15947 43.4233C2.04116 43.5388 1.92903 43.6589 1.8198 43.781V9.89394C1.8198 7.26123 3.73624 5.06737 6.24712 4.63409V13.5593V32.0597C6.24712 32.5622 6.65461 32.9698 7.15715 32.9698C7.65969 32.9698 8.06716 32.5624 8.06716 32.0599V14.4693H34.4947L29.464 19.5C29.1086 19.8556 29.1086 20.4316 29.464 20.7871C29.8193 21.1423 30.3955 21.1423 30.7508 20.7871L37.3351 14.2028C37.3349 14.2029 37.3354 14.2026 37.3351 14.2028L43.2916 8.24621L47.4699 12.4246L46.9796 12.9147C46.9793 12.9151 46.9787 12.9155 46.9784 12.9158L28.6292 31.2653L24.451 27.0871L28.0678 23.4701C28.4233 23.1146 28.4233 22.5386 28.0678 22.1831C27.7125 21.8278 27.1364 21.8278 26.781 22.1831L22.5206 26.4434C22.4979 26.4663 22.4765 26.4904 22.4565 26.515C22.4499 26.5233 22.444 26.5322 22.4377 26.5407C22.4248 26.5578 22.4123 26.575 22.4005 26.593C22.3938 26.6033 22.3878 26.6139 22.3814 26.6247C22.3714 26.6417 22.3618 26.659 22.3529 26.6765C22.347 26.6879 22.3418 26.6994 22.3365 26.7112C22.3284 26.7291 22.3209 26.7472 22.3139 26.7654C22.3116 26.7717 22.3085 26.7778 22.3061 26.7843L20.5332 31.8066L19.3244 35.231C19.3084 35.2765 19.2969 35.3229 19.2883 35.3695H16.262C15.7594 35.3695 15.3519 35.7768 15.3519 36.2794C15.3519 36.7821 15.7594 37.1895 16.262 37.1895H41.4634C41.966 37.1895 42.3733 36.7821 42.3733 36.2794C42.3733 35.7768 41.966 35.3695 41.4634 35.3695H23.3824L28.9322 33.4103C28.9367 33.4087 28.9412 33.4063 28.9457 33.4047C28.9673 33.3967 28.9884 33.3877 29.0094 33.3781C29.0178 33.3743 29.0262 33.3706 29.0343 33.3666C29.056 33.3558 29.0774 33.3437 29.0985 33.3309C29.1053 33.3268 29.1124 33.3231 29.119 33.3188C29.1409 33.3048 29.1623 33.2894 29.1831 33.2732C29.1884 33.2692 29.1939 33.2656 29.1989 33.2615C29.2243 33.2413 29.2491 33.2193 29.2726 33.1958L47.9991 14.4695H55.901V33.9106L42.8839 46.9279C42.5285 47.2834 42.5285 47.8594 42.8839 48.2149C42.9061 48.237 42.9291 48.2578 42.953 48.2773C43.1198 48.4133 43.3237 48.4813 43.5274 48.4813C43.7311 48.4813 43.935 48.4133 44.1018 48.2773C44.1255 48.258 44.1487 48.237 44.1709 48.2149C44.1706 48.2153 44.1712 48.2144 44.1709 48.2149L60.1803 32.2053V40.234ZM26.9648 32.1744L24.3582 33.0947L22.6214 31.358L23.5417 28.7513L26.9648 32.1744Z" fill="#2D3748"/>
</g>
</g>
<defs>
<clipPath id="clip0_7020_4244">
<rect width="62" height="62" fill="white"/>
</clipPath>
</defs>
</svg>
