<svg width="62" height="62" viewBox="0 0 62 62" fill="none" xmlns="http://www.w3.org/2000/svg">
<g clip-path="url(#clip0_7020_4255)">
<path d="M21.1697 33.3139C21.6715 33.3139 22.0779 32.9075 22.0779 32.4057C22.0779 31.9041 21.6715 31.4976 21.1697 31.4976H17.0701V28.7739C17.0701 28.2723 16.6635 27.8657 16.1618 27.8657C15.6602 27.8657 15.2536 28.2723 15.2536 28.7739V31.4976H12.0619V21.0091C12.0619 20.3408 11.5428 19.8174 10.8801 19.8174H1.56721C0.817161 19.8174 0.229492 20.4669 0.229492 21.2959V60.521C0.229492 61.35 0.817161 61.9994 1.56721 61.9994H20.7402C21.4778 61.9994 22.0779 61.3361 22.0779 60.521V51.1044C22.0779 50.6026 21.6715 50.1961 21.1697 50.1961C20.668 50.1961 20.2616 50.6026 20.2616 51.1044V60.1829H2.04601V21.6338H10.2456V23.9194H7.17786C6.67616 23.9194 6.26965 24.326 6.26965 24.8276C6.26965 25.3293 6.67616 25.7357 7.17786 25.7357H10.2455V29.0337H7.49305C6.99137 29.0337 6.58486 29.4402 6.58486 29.9418C6.58486 30.4436 6.99137 30.8501 7.49305 30.8501H10.2455V38.8749C10.2455 39.3765 10.652 39.783 11.1537 39.783H20.2616V46.8816C20.2616 47.3832 20.668 47.7897 21.1697 47.7897C21.6715 47.7897 22.0779 47.3832 22.0779 46.8816V39.1581C22.0779 38.4221 21.4448 37.9666 20.8581 37.9666H17.0701V33.3139H21.1697ZM15.2536 37.9666H12.0619V33.3139H15.2535L15.2536 37.9666Z" fill="#2D3748"/>
<path d="M52.1401 42.0056V37.5209V29.304C52.1401 29.3043 52.1401 29.3036 52.1401 29.304V26.6841V16.6011C52.1401 16.6014 52.1401 16.6008 52.1401 16.6011V15.8472V11.1571H53.909C54.7343 11.1571 55.4058 10.4861 55.4058 9.66134V9.57779H60.1118C60.514 9.57779 60.8831 9.4475 61.1706 9.23122C61.2226 9.19634 61.2719 9.15566 61.3175 9.1088C61.3277 9.09826 61.3366 9.08688 61.3463 9.07599C61.6097 8.80993 61.7715 8.45974 61.7715 8.07526V3.08184C61.7715 2.2532 61.027 1.57918 60.1118 1.57918H55.406V1.49575C55.406 0.67098 54.7345 0 53.9091 0H42.3588C41.5335 0 40.8618 0.67098 40.8618 1.49575V1.57918H39.1447H29.0402C29.0391 1.57918 29.0381 1.57918 29.0371 1.57918H28.2836H15.2822C14.3652 1.57918 13.6191 2.2532 13.6191 3.08184V8.07515C13.6191 8.90366 14.3652 9.57767 15.2822 9.57767H19.6038V12.7086L16.244 16.2794H15.4141C14.6191 16.2794 13.9725 16.9257 13.9725 17.7199V21.9669C13.9725 22.763 14.6191 23.4108 15.4141 23.4108H25.6067C26.4036 23.4108 27.0518 22.763 27.0518 21.9669V17.7199C27.0518 16.9257 26.4036 16.2794 25.6067 16.2794H24.78L21.4202 12.7086V9.57779H28.2838H39.1449H40.862V9.66134C40.862 10.4861 41.5335 11.1571 42.359 11.1571H44.1277V15.8469V26.6839V37.5208V47.4493H41.2815C40.0226 47.4493 38.9984 48.4723 38.9984 49.7296V55.6531H38.002C36.2484 55.6531 34.8217 57.0776 34.8217 58.8284V60.4835C34.8217 61.3198 35.5041 61.9999 36.343 61.9999H60.2123C61.0493 61.9999 61.73 61.3198 61.73 60.4835V58.8284C61.73 57.0776 60.3049 55.6531 58.5534 55.6531H57.5569V49.7296C57.5569 48.4723 56.531 47.4493 55.2702 47.4493H52.1401V42.0056C52.1401 42.0062 52.1401 42.0053 52.1401 42.0056ZM59.9551 3.39596V6.52017L56.7371 3.39583L59.9551 3.39596ZM55.406 4.63499L58.626 7.76138H55.406V4.63499ZM15.4356 7.76091V3.39559H15.939L20.434 7.76103L15.4356 7.76091ZM25.2352 18.096V21.5945H15.7887V18.096H25.2352ZM22.2859 16.2796H18.7378L20.5119 14.3941L22.2859 16.2796ZM18.5462 3.39559H26.7999L22.6731 7.40355L18.5462 3.39559ZM28.2838 7.76138L24.912 7.76126L29.0387 3.75342L33.1655 7.76138H28.2838ZM31.2773 3.39559H39.1447H39.5313L35.4042 7.40355L31.2773 3.39559ZM39.1447 7.76138H37.643L40.8618 4.63547V7.76138H39.1447ZM55.27 49.2659C55.5294 49.2659 55.7403 49.4739 55.7403 49.7298V55.6533H50.4526C49.9509 55.6533 49.5443 56.0598 49.5443 56.5614C49.5443 57.0632 49.9509 57.4697 50.4526 57.4697H58.5532C59.3033 57.4697 59.9135 58.0791 59.9135 58.8284V60.1837H36.6381V58.8284C36.6381 58.0791 37.25 57.4697 38.002 57.4697H46.0542C46.5559 57.4697 46.9625 57.0632 46.9625 56.5614C46.9625 56.0598 46.5559 55.6533 46.0542 55.6533H40.8149V49.7298C40.8149 49.4784 41.0288 49.2659 41.2815 49.2659H45.0359H51.2318H55.27ZM49.9631 16.6004L45.9442 20.7203V15.8469V12.4804L49.9631 16.6004ZM47.1905 11.1571H50.3236V14.3689L47.1905 11.1571ZM50.3236 18.8319V26.6839V27.0716L46.3045 22.9517L50.3236 18.8319ZM49.9631 29.3033L45.9442 33.4232V26.6839V25.1832L49.9631 29.3033ZM50.3236 31.5348V37.5209V39.7748L46.3047 35.6547L50.3236 31.5348ZM49.9631 42.0063L45.9442 46.1262V37.8864L49.9631 42.0063ZM50.3236 44.2379V47.4495H47.1905L50.3236 44.2379ZM51.2318 9.3407H45.0478C45.0473 9.3407 45.0465 9.3407 45.0458 9.3407H45.0359H42.6781V1.81641H53.5894V9.3407H51.2318Z" fill="#2D3748"/>
<path d="M18.0841 43.8544C18.0841 43.1058 17.4763 42.4971 16.7292 42.4971H5.57718C4.82809 42.4971 4.21875 43.1058 4.21875 43.8544V47.5589C4.21875 48.3077 4.82809 48.9164 5.57718 48.9164H16.7292C17.4764 48.9164 18.0841 48.3077 18.0841 47.5589V43.8544ZM10.2449 47.1H6.03516V44.3134H10.245L10.2449 47.1ZM16.2677 47.1H12.0613V44.3134H16.2675L16.2677 47.1Z" fill="#2D3748"/>
<path d="M16.729 51.6309H5.57718C4.82809 51.6309 4.21875 52.2398 4.21875 52.9884V56.6929C4.21875 57.4413 4.82809 58.0502 5.57718 58.0502H16.7292C17.4764 58.0502 18.0841 57.4413 18.0841 56.6929V52.9884C18.0841 52.2398 17.4763 51.6309 16.729 51.6309ZM10.2449 56.2338H6.03516V53.4473H10.245L10.2449 56.2338ZM16.2677 56.2338H12.0613V53.4473H16.2675L16.2677 56.2338Z" fill="#2D3748"/>
</g>
<defs>
<clipPath id="clip0_7020_4255">
<rect width="62" height="62" fill="white"/>
</clipPath>
</defs>
</svg>
