<svg width="62" height="62" viewBox="0 0 62 62" fill="none" xmlns="http://www.w3.org/2000/svg">
<g clip-path="url(#clip0_7020_4252)">
<path d="M60.6175 24.3945L41.6436 11.1129C41.5106 8.37962 40.3311 5.80224 38.3497 3.91481C36.3682 2.0274 33.7366 0.974609 31 0.974609C28.2634 0.974609 25.6318 2.0274 23.6503 3.91481C21.6689 5.80224 20.4894 8.37962 20.3564 11.1129L1.38241 24.3945C1.25475 24.4838 1.1505 24.6025 1.07849 24.7405C1.00648 24.8787 0.968837 25.0321 0.96875 25.188V60.063C0.96875 60.3198 1.07081 60.5662 1.25249 60.7479C1.43417 60.9296 1.68057 61.0316 1.9375 61.0316H9.6875C9.88253 61.0315 10.073 60.9723 10.2339 60.8622L26.2415 49.9152C27.6496 48.9731 29.3058 48.4701 31 48.4701C32.6942 48.4701 34.3504 48.9731 35.7585 49.9152L51.7662 60.8622C51.9271 60.9723 52.1175 61.0315 52.3125 61.0316H60.0625C60.3194 61.0316 60.5659 60.9296 60.7475 60.7479C60.9292 60.5662 61.0313 60.3198 61.0313 60.063V25.188C61.0312 25.0321 60.9935 24.8787 60.9215 24.7405C60.8495 24.6025 60.7452 24.4838 60.6175 24.3945ZM41.6563 13.4864L49.0643 18.6721L50.6657 21.0707C51.6246 22.5106 52.1861 24.1784 52.2933 25.9051C52.4005 27.6318 52.0494 29.3561 51.2759 30.9035L50.0108 33.434L41.6563 27.5894V13.4864ZM41.6563 29.9552L49.6185 35.5284L51.459 39.2144C52.319 40.9327 52.5372 42.9017 52.0741 44.7667C51.6112 46.6315 50.4974 48.2698 48.9335 49.3863L47.7255 50.2485L41.6563 45.9966V29.9552ZM22.2813 11.6254C22.2813 9.31305 23.1998 7.09539 24.835 5.46032C26.47 3.82523 28.6877 2.90666 31 2.90666C33.3123 2.90666 35.53 3.82523 37.165 5.46032C38.8002 7.09539 39.7187 9.31305 39.7187 11.6254V40.3867C38.738 38.984 37.4334 37.8388 35.9156 37.048C34.3977 36.2573 32.7115 35.8443 31 35.8443C29.2885 35.8443 27.6023 36.2573 26.0844 37.048C24.5666 37.8388 23.262 38.984 22.2813 40.3867V11.6254ZM11.3344 21.0707L12.9338 18.6721L20.3437 13.4864V27.5894L11.9892 33.4378L10.7241 30.9035C9.95048 29.3561 9.5995 27.6318 9.70669 25.9051C9.81386 24.1784 10.3754 22.5106 11.3344 21.0707ZM20.3437 29.9552V45.9966L14.2726 50.2455L13.0646 49.3835C11.5007 48.2669 10.387 46.6286 9.92394 44.7637C9.46092 42.8988 9.67904 40.9299 10.539 39.2115L12.3797 35.5303L20.3437 29.9552ZM2.90625 25.6927L8.86309 21.527C8.10944 23.1341 7.72944 24.8909 7.75158 26.6659C7.77372 28.4407 8.19745 30.1877 8.99097 31.7755L10.385 34.5635L2.90625 39.7957V25.6927ZM2.90625 42.1613L9.04909 37.861L8.80593 38.3455C7.74066 40.4763 7.47093 42.9173 8.04527 45.2292C8.61961 47.5412 10.0003 49.5721 11.9389 50.9566L12.5899 51.4216L2.90238 58.203L2.90625 42.1613ZM52.6128 59.0941L36.8522 48.311C35.1283 47.1318 33.0885 46.5009 31 46.5009C28.9115 46.5009 26.8717 47.1318 25.1478 48.311L9.38718 59.0941H5.01037L21.8667 47.2938C21.9945 47.2046 22.0989 47.0861 22.1711 46.9479C22.2432 46.8097 22.281 46.6562 22.2813 46.5005C22.2813 44.188 23.1998 41.9705 24.835 40.3353C26.47 38.7003 28.6877 37.7816 31 37.7816C33.3123 37.7816 35.53 38.7003 37.165 40.3353C38.8002 41.9705 39.7187 44.188 39.7187 46.5005C39.7188 46.6562 39.7565 46.8096 39.8285 46.9477C39.9005 47.0859 40.0048 47.2046 40.1325 47.2938L56.9897 59.0941H52.6128ZM59.0937 58.2019L49.4063 51.4207L50.0573 50.9557C51.9957 49.5718 53.3768 47.5416 53.9518 45.2303C54.5268 42.9189 54.2581 40.4783 53.1941 38.3475L52.9509 37.863L59.0937 42.1613V58.2019ZM59.0937 39.7957L51.615 34.5644L53.009 31.7755C53.803 30.1872 54.227 28.4399 54.2491 26.6644C54.2713 24.889 53.891 23.1316 53.1369 21.524L59.0937 25.6927V39.7957Z" fill="#2D3748"/>
</g>
<defs>
<clipPath id="clip0_7020_4252">
<rect width="62" height="62" fill="white"/>
</clipPath>
</defs>
</svg>
