<svg width="62" height="62" viewBox="0 0 62 62" fill="none" xmlns="http://www.w3.org/2000/svg">
<g clip-path="url(#clip0_7020_4240)">
<path d="M60.7532 19.2761L54.4664 15.084V5.5744H55.4386C55.9402 5.5744 56.3468 5.16789 56.3468 4.66619V0.913984C56.3468 0.412415 55.9402 0.00578188 55.4386 0.00578188H44.1592C43.6575 0.00578188 43.2511 0.412294 43.2511 0.913984V4.66619C43.2511 5.16777 43.6576 5.5744 44.1592 5.5744H45.131V8.85883L32.5547 0.472841C31.6103 -0.157452 30.3896 -0.157694 29.4454 0.472599L16.9142 8.82892C16.4969 9.10731 16.3842 9.67113 16.6625 10.0884C16.9409 10.5057 17.5048 10.6184 17.922 10.3402L30.4535 1.9836C30.7855 1.76188 31.2145 1.76213 31.5466 1.98385L59.7457 20.7876C60.1979 21.0889 60.3204 21.7025 60.0188 22.1554C59.9643 22.2372 59.4642 22.9369 58.6421 22.4224L31.504 4.32629C31.1987 4.12285 30.8012 4.12285 30.496 4.32629L3.34759 22.4292C2.8167 22.7155 2.36129 22.6241 1.98128 22.1556C1.67964 21.7025 1.80206 21.0889 2.2546 20.7873L14.6298 12.5351C15.0471 12.2567 15.1597 11.6929 14.8815 11.2756C14.6032 10.8584 14.0396 10.7457 13.622 11.0239L1.24697 19.2761C-0.0385578 20.1327 -0.387429 21.8761 0.469914 23.1632C1.55056 24.4956 2.84589 24.7545 4.35581 23.9403L7.53356 21.8213V56.4135H4.68107C4.17949 56.4135 3.77286 56.82 3.77286 57.3218V61.0918C3.77286 61.5933 4.17949 62 4.68107 62H30.902C32.094 61.9628 32.1133 60.2281 30.902 60.1835H5.58939V58.2298H56.4108V60.1835H34.8574C34.3558 60.1835 33.9493 60.5901 33.9493 61.0918C33.9493 61.5935 34.356 62 34.8574 62H57.319C57.8206 62 58.2272 61.5935 58.2272 61.0918V57.3217C58.2272 56.82 57.8205 56.4135 57.319 56.4135H54.4664V42.3683C54.4664 41.8667 54.0599 41.46 53.5583 41.46C53.0565 41.46 52.6501 41.8665 52.6501 42.3683V56.411H36.0881C36.4182 55.8568 36.608 55.2098 36.608 54.5191V42.2639C36.608 41.7625 36.2014 41.3558 35.6999 41.3558H33.7881V37.9657C33.7881 36.7747 33.0273 35.7331 31.8938 35.3707L17.5194 30.5337C17.5141 30.5318 17.5087 30.5301 17.5032 30.5285C17.124 30.4086 16.8692 30.0607 16.8692 29.6627V25.2765C16.8692 24.7758 17.2762 24.3685 17.7766 24.3685H18.8121V25.4049C18.8121 26.9071 20.0341 28.1293 21.5358 28.1293H30.0917V29.1133C30.2333 32.8095 35.5287 32.8051 35.668 29.1133C35.668 28.5773 36.1039 28.1411 36.6396 28.1411C37.1754 28.1411 37.6113 28.5771 37.6113 29.1133V32.874C37.6113 34.4116 38.862 35.6625 40.3995 35.6625C41.9369 35.6625 43.1876 34.4116 43.1876 32.874V28.1293H44.2236C45.7256 28.1293 46.9474 26.9071 46.9474 25.4049V21.5161C46.9474 20.0139 45.7256 18.7918 44.2236 18.7918H21.5358C20.034 18.7918 18.8121 20.0139 18.8121 21.5161V22.5521H17.7766C16.2746 22.5521 15.0526 23.7742 15.0526 25.2764V29.6626C15.0526 30.8537 15.8135 31.8953 16.9473 32.2574L31.3214 37.0945C31.3268 37.0964 31.3321 37.098 31.3375 37.0998C31.7168 37.2196 31.9716 37.5674 31.9716 37.9656V41.3556H30.06C29.5585 41.3556 29.1518 41.7622 29.1518 42.2639V54.5191C29.1518 55.2097 29.3417 55.8567 29.6717 56.4108H24.3887V38.515C24.3887 38.0135 23.982 37.6068 23.4804 37.6068H12.2011C11.6995 37.6068 11.2929 38.0134 11.2929 38.515V56.411H9.35009V20.61L31 6.17358L52.6501 20.61V38.4105C52.6501 38.9119 53.0566 39.3186 53.5583 39.3186C54.06 39.3186 54.4664 38.9121 54.4664 38.4105V21.8212L57.6442 23.9401C58.9357 24.8097 60.681 24.437 61.5306 23.1623C62.3874 21.8761 62.0385 20.1327 60.7532 19.2761ZM45.0675 1.82219H54.5303V3.758H45.0675V1.82219ZM46.9474 5.57852H52.65V13.8727L46.9474 10.0701V5.57852ZM41.3711 32.8739C41.3254 34.1608 39.4732 34.1601 39.4279 32.8739V29.1133C39.4279 27.5755 38.1772 26.3246 36.6398 26.3246C35.1023 26.3246 33.8517 27.5755 33.8517 29.1133C33.8068 30.399 31.9538 30.4001 31.9085 29.1133V25.3407C31.9085 23.803 30.6577 22.5521 29.1202 22.5521C28.5845 22.5521 28.1486 22.116 28.1486 21.5798V20.6085L41.3711 20.6187V32.8739ZM45.131 21.5161V25.4049C45.131 25.9055 44.724 26.3128 44.2237 26.3128H43.1877V20.6084H44.2237C44.724 20.6082 45.131 21.0155 45.131 21.5161ZM21.5358 20.6082H26.332V21.5798C26.332 23.1174 27.5826 24.3684 29.1201 24.3684C29.6558 24.3684 30.0917 24.8044 30.0917 25.3407V26.3127H21.5358C21.0356 26.3127 20.6286 25.9054 20.6286 25.4048V21.5159C20.6286 21.0155 21.0356 20.6082 21.5358 20.6082ZM30.9684 43.1722H34.7914V54.5191C34.7914 55.655 33.8458 56.4106 32.8597 56.4106C31.8168 56.4106 30.9683 55.562 30.9683 54.5191L30.9684 43.1722ZM13.1094 39.4233H22.5723V56.4106H13.1094V39.4233Z" fill="#2D3748"/>
<path d="M40.3937 37.6064C38.8594 37.6064 37.6113 38.8547 37.6113 40.3891C37.7513 44.0756 43.0365 44.0747 43.1758 40.3891C43.1757 38.8547 41.9276 37.6064 40.3937 37.6064ZM40.3937 41.3554C39.861 41.3554 39.4278 40.9218 39.4278 40.3891C39.4731 39.1102 41.3142 39.1104 41.3594 40.3891C41.3592 40.9218 40.9261 41.3554 40.3937 41.3554Z" fill="#2D3748"/>
</g>
<defs>
<clipPath id="clip0_7020_4240">
<rect width="62" height="62" fill="white"/>
</clipPath>
</defs>
</svg>
