<svg width="12" height="12" viewBox="0 0 12 12" fill="none" xmlns="http://www.w3.org/2000/svg">
<g clip-path="url(#clip0_7034_4228)">
<path d="M6 8.5V5.5" stroke="white" stroke-width="0.75" stroke-linecap="round"/>
<path d="M6 3.5C6.27614 3.5 6.5 3.72386 6.5 4C6.5 4.27614 6.27614 4.5 6 4.5C5.72386 4.5 5.5 4.27614 5.5 4C5.5 3.72386 5.72386 3.5 6 3.5Z" fill="white"/>
<path d="M3.5 1.66901C4.25972 1.22937 5.12224 0.998559 6 1.00001C8.7615 1.00001 11 3.23851 11 6.00001C11 8.76151 8.7615 11 6 11C3.2385 11 1 8.76151 1 6.00001C1 5.08951 1.2435 4.23501 1.669 3.50001" stroke="white" stroke-width="0.75" stroke-linecap="round"/>
</g>
<defs>
<clipPath id="clip0_7034_4228">
<rect width="12" height="12" fill="white"/>
</clipPath>
</defs>
</svg>
