<svg xmlns="http://www.w3.org/2000/svg">
<defs>
<clipPath id="a">
      <path d="M0 0h12v12H0z"/>
    </clipPath>
</defs>
<symbol id="arrow1" viewBox="0 0 15 10">
  <path d="M7.5 9.275c-.269 0-.538-.103-.743-.307l-6.45-6.45a1.05 1.05 0 1 1 1.486-1.486L7.5 6.74l5.707-5.707a1.05 1.05 0 0 1 1.485 1.486l-6.45 6.45a1.047 1.047 0 0 1-.742.307Z"/>
</symbol>
<symbol id="arrow2" viewBox="0 0 24 14">
  <path d="m17.418.418-1.07 1.069 4.758 4.757H0v1.512h21.106l-4.757 4.757 1.069 1.07L24 7 17.418.418Z"/>
</symbol>
<symbol id="arrow3" viewBox="0 0 12 12">
  <g clip-path="url(#a)">
    <path d="M6.002 11.23A5.234 5.234 0 0 1 .772 6 5.234 5.234 0 0 1 6.001.77c.199 0 .364.165.364.364 0 .2-.165.365-.364.365a4.506 4.506 0 0 0-4.5 4.5c0 2.482 2.018 4.5 4.5 4.5 2.48 0 4.5-2.018 4.5-4.5 0-.199.165-.364.365-.364.2 0 .364.165.364.365A5.234 5.234 0 0 1 6 11.23Z"/>
    <path d="M6.487 5.878a.36.36 0 0 1-.258-.107.367.367 0 0 1 0-.516l3.99-3.989a.367.367 0 0 1 .516 0 .367.367 0 0 1 0 .516l-3.99 3.99a.36.36 0 0 1-.258.106Z"/>
    <path d="M10.866 3.85a.368.368 0 0 1-.365-.366V1.5H8.516a.368.368 0 0 1-.365-.365c0-.2.166-.364.365-.364h2.35c.2 0 .365.165.365.364v2.35c0 .2-.165.365-.365.365Z"/>
  </g>
  
</symbol>
<symbol id="location" viewBox="0 0 15 18">
  <path d="M7.5 0C5.51 0 3.603.762 2.197 2.117A7.099 7.099 0 0 0 0 7.23c0 3.436 3.865 7.562 7.113 10.42l.399.351.386-.361C11.492 14.302 15 10.76 15 7.229a7.1 7.1 0 0 0-2.197-5.112A7.645 7.645 0 0 0 7.5 0Zm0 16.47c-4.09-3.68-6.346-6.95-6.346-9.24 0-1.622.668-3.178 1.859-4.325A6.469 6.469 0 0 1 7.5 1.112c1.683 0 3.297.645 4.487 1.792a6.007 6.007 0 0 1 1.86 4.325c0 2.975-3.082 6.167-6.347 9.242Z"/>
  <path d="M7.5 4.449a2.97 2.97 0 0 0-1.603.468c-.474.306-.844.74-1.062 1.248a2.687 2.687 0 0 0-.164 1.606 2.75 2.75 0 0 0 .79 1.424 2.92 2.92 0 0 0 1.476.76c.56.108 1.14.053 1.667-.157.527-.21.977-.567 1.294-1.024a2.71 2.71 0 0 0 .486-1.545 2.73 2.73 0 0 0-.844-1.966 2.94 2.94 0 0 0-2.04-.814Zm0 4.448c-.342 0-.677-.098-.962-.281a1.683 1.683 0 0 1-.637-.749 1.612 1.612 0 0 1-.099-.963 1.65 1.65 0 0 1 .474-.855c.242-.233.55-.392.886-.456a1.791 1.791 0 0 1 1 .095c.316.126.587.34.777.614.19.274.292.597.292.927 0 .442-.183.867-.507 1.18a1.764 1.764 0 0 1-1.224.488Z"/>
</symbol>
<symbol id="play" viewBox="0 0 19 20">
  <path d="M19 10 0 20V0l19 10Z"/>
</symbol>
<symbol id="telegram" viewBox="0 0 18 16">
  <path d="m17.762 1.866-2.688 12.729c-.203.898-.732 1.122-1.484.698l-4.095-3.03-1.976 1.908c-.22.22-.402.404-.823.404l.294-4.189L14.58 3.5c.33-.296-.07-.46-.512-.164L4.683 9.269l-4.04-1.27c-.878-.275-.894-.882.183-1.305L16.628.58C17.36.304 18 .744 17.762 1.866Z"/>
</symbol>
<symbol id="whatsapp" viewBox="0 0 20 20">
  <path d="M10.002 0h-.005C4.485 0 0 4.485 0 10c0 2.188.705 4.215 1.904 5.861L.658 19.576 4.5 18.347A9.913 9.913 0 0 0 10.002 20C15.517 20 20 15.514 20 10S15.516 0 10.002 0Zm5.82 14.121c-.242.681-1.2 1.246-1.963 1.412-.523.11-1.205.2-3.503-.753-2.938-1.217-4.831-4.204-4.978-4.397C5.236 10.188 4.19 8.8 4.19 7.366c0-1.435.729-2.133 1.022-2.433.242-.247.64-.36 1.023-.36.124 0 .235.007.335.012.294.013.441.03.635.494.241.581.829 2.016.899 2.163.071.148.142.348.042.542-.094.2-.176.288-.324.458-.147.17-.287.3-.434.483-.135.159-.288.329-.118.623.17.287.758 1.246 1.623 2.016 1.116.993 2.02 1.311 2.345 1.446.24.1.528.076.705-.111.223-.242.5-.642.78-1.035.2-.283.453-.318.718-.218.27.094 1.699.8 1.993.947.293.147.487.217.559.34.07.124.07.706-.172 1.388Z"/>
</symbol>
</svg>