<svg xmlns="http://www.w3.org/2000/svg">
<defs>
<clipPath id="a">
      <path d="M0 0h12v12H0z"/>
    </clipPath>
</defs>
<symbol id="arrow1" viewBox="0 0 15 10">
  <path d="M7.5 9.275c-.269 0-.538-.103-.743-.307l-6.45-6.45a1.05 1.05 0 1 1 1.486-1.486L7.5 6.74l5.707-5.707a1.05 1.05 0 0 1 1.485 1.486l-6.45 6.45a1.047 1.047 0 0 1-.742.307Z"/>
</symbol>
<symbol id="arrow2" viewBox="0 0 24 14">
  <path d="m17.418.418-1.07 1.069 4.758 4.757H0v1.512h21.106l-4.757 4.757 1.069 1.07L24 7 17.418.418Z"/>
</symbol>
<symbol id="arrow3" viewBox="0 0 12 12">
  <g clip-path="url(#a)">
    <path d="M6.002 11.23A5.234 5.234 0 0 1 .772 6 5.234 5.234 0 0 1 6.001.77c.199 0 .364.165.364.364 0 .2-.165.365-.364.365a4.506 4.506 0 0 0-4.5 4.5c0 2.482 2.018 4.5 4.5 4.5 2.48 0 4.5-2.018 4.5-4.5 0-.199.165-.364.365-.364.2 0 .364.165.364.365A5.234 5.234 0 0 1 6 11.23Z"/>
    <path d="M6.487 5.878a.36.36 0 0 1-.258-.107.367.367 0 0 1 0-.516l3.99-3.989a.367.367 0 0 1 .516 0 .367.367 0 0 1 0 .516l-3.99 3.99a.36.36 0 0 1-.258.106Z"/>
    <path d="M10.866 3.85a.368.368 0 0 1-.365-.366V1.5H8.516a.368.368 0 0 1-.365-.365c0-.2.166-.364.365-.364h2.35c.2 0 .365.165.365.364v2.35c0 .2-.165.365-.365.365Z"/>
  </g>
  
</symbol>
<symbol id="calendar" viewBox="0 0 20 20">
  <path d="M4.375 12.5h1.25c.69 0 1.25-.56 1.25-1.25V10c0-.69-.56-1.25-1.25-1.25h-1.25c-.69 0-1.25.56-1.25 1.25v1.25c0 .69.56 1.25 1.25 1.25Zm0-2.5h1.25v1.25h-1.25V10Zm10 7.5h1.25c.69 0 1.25-.56 1.25-1.25V15c0-.69-.56-1.25-1.25-1.25h-1.25c-.69 0-1.25.56-1.25 1.25v1.25c0 .69.56 1.25 1.25 1.25Zm0-2.5h1.25v1.25h-1.25V15Zm0-2.5h1.25c.69 0 1.25-.56 1.25-1.25V10c0-.69-.56-1.25-1.25-1.25h-1.25c-.69 0-1.25.56-1.25 1.25v1.25c0 .69.56 1.25 1.25 1.25Zm0-2.5h1.25v1.25h-1.25V10Zm2.5-8.75h-2.5V.625a.625.625 0 0 0-1.25 0v.625h-6.25V.625a.625.625 0 0 0-1.25 0v.625h-2.5a2.5 2.5 0 0 0-2.5 2.5V17.5a2.5 2.5 0 0 0 2.5 2.5h13.75a2.5 2.5 0 0 0 2.5-2.5V3.75a2.5 2.5 0 0 0-2.5-2.5Zm1.25 16.25c0 .69-.56 1.25-1.25 1.25H3.125c-.69 0-1.25-.56-1.25-1.25V6.25h16.25V17.5Zm0-12.5H1.875V3.75c0-.69.56-1.25 1.25-1.25h2.5v.625a.625.625 0 0 0 1.25 0V2.5h6.25v.625a.625.625 0 0 0 1.25 0V2.5h2.5c.69 0 1.25.56 1.25 1.25V5Zm-8.75 12.5h1.25c.69 0 1.25-.56 1.25-1.25V15c0-.69-.56-1.25-1.25-1.25h-1.25c-.69 0-1.25.56-1.25 1.25v1.25c0 .69.56 1.25 1.25 1.25Zm0-2.5h1.25v1.25h-1.25V15Zm0-2.5h1.25c.69 0 1.25-.56 1.25-1.25V10c0-.69-.56-1.25-1.25-1.25h-1.25c-.69 0-1.25.56-1.25 1.25v1.25c0 .69.56 1.25 1.25 1.25Zm0-2.5h1.25v1.25h-1.25V10Zm-5 7.5h1.25c.69 0 1.25-.56 1.25-1.25V15c0-.69-.56-1.25-1.25-1.25h-1.25c-.69 0-1.25.56-1.25 1.25v1.25c0 .69.56 1.25 1.25 1.25Zm0-2.5h1.25v1.25h-1.25V15Z"/>
</symbol>
<symbol id="location" viewBox="0 0 15 18">
  <path d="M7.5 0C5.51 0 3.603.762 2.197 2.117A7.099 7.099 0 0 0 0 7.23c0 3.436 3.865 7.562 7.113 10.42l.399.351.386-.361C11.492 14.302 15 10.76 15 7.229a7.1 7.1 0 0 0-2.197-5.112A7.645 7.645 0 0 0 7.5 0Zm0 16.47c-4.09-3.68-6.346-6.95-6.346-9.24 0-1.622.668-3.178 1.859-4.325A6.469 6.469 0 0 1 7.5 1.112c1.683 0 3.297.645 4.487 1.792a6.007 6.007 0 0 1 1.86 4.325c0 2.975-3.082 6.167-6.347 9.242Z"/>
  <path d="M7.5 4.449a2.97 2.97 0 0 0-1.603.468c-.474.306-.844.74-1.062 1.248a2.687 2.687 0 0 0-.164 1.606 2.75 2.75 0 0 0 .79 1.424 2.92 2.92 0 0 0 1.476.76c.56.108 1.14.053 1.667-.157.527-.21.977-.567 1.294-1.024a2.71 2.71 0 0 0 .486-1.545 2.73 2.73 0 0 0-.844-1.966 2.94 2.94 0 0 0-2.04-.814Zm0 4.448c-.342 0-.677-.098-.962-.281a1.683 1.683 0 0 1-.637-.749 1.612 1.612 0 0 1-.099-.963 1.65 1.65 0 0 1 .474-.855c.242-.233.55-.392.886-.456a1.791 1.791 0 0 1 1 .095c.316.126.587.34.777.614.19.274.292.597.292.927 0 .442-.183.867-.507 1.18a1.764 1.764 0 0 1-1.224.488Z"/>
</symbol>
<symbol id="phone1" viewBox="0 0 17 17">
  <path fill-rule="evenodd" clip-rule="evenodd" d="M6 1.08301L6.11328 1.0918C6.37305 1.13141 6.5966 1.30559 6.69629 1.55469L8.36328 5.72168C8.49981 6.0634 8.3683 6.45421 8.05273 6.64355L6.58594 7.52246C7.29715 8.709 8.29015 9.70169 9.47656 10.4131L10.3564 8.94727C10.5458 8.6317 10.9366 8.50019 11.2783 8.63672L15.4453 10.3037C15.73 10.4176 15.917 10.6934 15.917 11V14.333C15.917 14.9739 15.6621 15.5888 15.209 16.042C14.7558 16.4952 14.1409 16.75 13.5 16.75C13.4848 16.75 13.4692 16.7499 13.4541 16.749C10.0208 16.5403 6.7828 15.0816 4.35059 12.6494C1.91837 10.2172 0.459714 6.97922 0.250977 3.5459C0.250056 3.53075 0.25 3.51518 0.25 3.5C0.25 2.85906 0.504795 2.24423 0.958008 1.79102C1.41121 1.3379 2.02613 1.08301 2.66699 1.08301H6ZM2.66699 2.58301C2.42395 2.58301 2.19045 2.67976 2.01855 2.85156C1.85172 3.0184 1.75649 3.24319 1.75098 3.47852C1.94274 6.53735 3.24358 9.42131 5.41113 11.5889C7.57845 13.7562 10.4621 15.0561 13.5205 15.248C13.7562 15.2428 13.9814 15.1485 14.1484 14.9814C14.3202 14.8096 14.417 14.576 14.417 14.333V11.5078L11.3145 10.2666L10.3936 11.8027C10.1927 12.1374 9.76804 12.2615 9.41797 12.0889C7.46063 11.1234 5.87657 9.53937 4.91113 7.58203C4.73849 7.23196 4.86256 6.80727 5.19727 6.60645L6.73242 5.68457L5.49219 2.58301H2.66699Z"/>
  <path d="M11 3.58301C11.6409 3.58301 12.2558 3.8378 12.709 4.29102C13.1622 4.74423 13.417 5.35906 13.417 6C13.417 6.4141 13.0811 6.74982 12.667 6.75C12.2528 6.75 11.917 6.41421 11.917 6C11.917 5.75689 11.8203 5.52347 11.6484 5.35156C11.4765 5.17965 11.2431 5.08301 11 5.08301C10.5858 5.08301 10.25 4.74722 10.25 4.33301C10.2502 3.91894 10.5859 3.58301 11 3.58301Z"/>
  <path d="M11 0.25C12.525 0.25 13.9871 0.856236 15.0654 1.93457C16.1438 3.0129 16.75 4.47501 16.75 6C16.75 6.41421 16.4142 6.75 16 6.75C15.5858 6.75 15.25 6.41421 15.25 6C15.25 4.87283 14.8019 3.79215 14.0049 2.99512C13.2079 2.19809 12.1272 1.75 11 1.75C10.5858 1.75 10.25 1.41421 10.25 1C10.25 0.585786 10.5858 0.25 11 0.25Z"/>
</symbol>
<symbol id="play" viewBox="0 0 19 20">
  <path d="M19 10 0 20V0l19 10Z"/>
</symbol>
<symbol id="telegram" viewBox="0 0 18 16">
  <path d="m17.762 1.866-2.688 12.729c-.203.898-.732 1.122-1.484.698l-4.095-3.03-1.976 1.908c-.22.22-.402.404-.823.404l.294-4.189L14.58 3.5c.33-.296-.07-.46-.512-.164L4.683 9.269l-4.04-1.27c-.878-.275-.894-.882.183-1.305L16.628.58C17.36.304 18 .744 17.762 1.866Z"/>
</symbol>
<symbol id="whatsapp" viewBox="0 0 20 20">
  <path d="M10.002 0h-.005C4.485 0 0 4.485 0 10c0 2.188.705 4.215 1.904 5.861L.658 19.576 4.5 18.347A9.913 9.913 0 0 0 10.002 20C15.517 20 20 15.514 20 10S15.516 0 10.002 0Zm5.82 14.121c-.242.681-1.2 1.246-1.963 1.412-.523.11-1.205.2-3.503-.753-2.938-1.217-4.831-4.204-4.978-4.397C5.236 10.188 4.19 8.8 4.19 7.366c0-1.435.729-2.133 1.022-2.433.242-.247.64-.36 1.023-.36.124 0 .235.007.335.012.294.013.441.03.635.494.241.581.829 2.016.899 2.163.071.148.142.348.042.542-.094.2-.176.288-.324.458-.147.17-.287.3-.434.483-.135.159-.288.329-.118.623.17.287.758 1.246 1.623 2.016 1.116.993 2.02 1.311 2.345 1.446.24.1.528.076.705-.111.223-.242.5-.642.78-1.035.2-.283.453-.318.718-.218.27.094 1.699.8 1.993.947.293.147.487.217.559.34.07.124.07.706-.172 1.388Z"/>
</symbol>
</svg>