<svg width="12" height="12" viewBox="0 0 12 12" fill="none" xmlns="http://www.w3.org/2000/svg">
<g clip-path="url(#clip0_7031_4228)">
<path d="M6 0.75C3.10078 0.75 0.75 3.10078 0.75 6C0.75 8.89924 3.10078 11.25 6 11.25C8.89924 11.25 11.25 8.89924 11.25 6C11.25 3.10078 8.89924 0.75 6 0.75ZM6 10.3594C3.59297 10.3594 1.64062 8.40705 1.64062 6C1.64062 3.59297 3.59297 1.64062 6 1.64062C8.40705 1.64062 10.3594 3.59297 10.3594 6C10.3594 8.40705 8.40705 10.3594 6 10.3594Z" fill="#2D3748"/>
<path d="M8.04728 7.48357L6.37616 6.2754V3.375C6.37616 3.32344 6.33397 3.28125 6.28241 3.28125H5.71875C5.66719 3.28125 5.625 3.32344 5.625 3.375V6.60236C5.625 6.63281 5.63906 6.66094 5.66366 6.67853L7.60196 8.09179C7.64415 8.12228 7.70273 8.1129 7.73321 8.07187L8.06835 7.61483C8.09884 7.57148 8.08946 7.5129 8.04728 7.48357Z" fill="#2D3748"/>
</g>
<defs>
<clipPath id="clip0_7031_4228">
<rect width="12" height="12" fill="white"/>
</clipPath>
</defs>
</svg>
