<svg xmlns="http://www.w3.org/2000/svg" width="12" height="12" fill="currentColor" viewBox="0 0 12 12">
  <g clip-path="url(#a)">
    <path d="M6.002 11.23A5.234 5.234 0 0 1 .772 6 5.234 5.234 0 0 1 6.001.77c.199 0 .364.165.364.364 0 .2-.165.365-.364.365a4.506 4.506 0 0 0-4.5 4.5c0 2.482 2.018 4.5 4.5 4.5 2.48 0 4.5-2.018 4.5-4.5 0-.199.165-.364.365-.364.2 0 .364.165.364.365A5.234 5.234 0 0 1 6 11.23Z"/>
    <path d="M6.487 5.878a.36.36 0 0 1-.258-.107.367.367 0 0 1 0-.516l3.99-3.989a.367.367 0 0 1 .516 0 .367.367 0 0 1 0 .516l-3.99 3.99a.36.36 0 0 1-.258.106Z"/>
    <path d="M10.866 3.85a.368.368 0 0 1-.365-.366V1.5H8.516a.368.368 0 0 1-.365-.365c0-.2.166-.364.365-.364h2.35c.2 0 .365.165.365.364v2.35c0 .2-.165.365-.365.365Z"/>
  </g>
  <defs>
    <clipPath id="a">
      <path d="M0 0h12v12H0z"/>
    </clipPath>
  </defs>
</svg>
