<svg xmlns="http://www.w3.org/2000/svg" width="20" height="20" fill="currentColor" viewBox="0 0 20 20">
  <path d="M4.375 12.5h1.25c.69 0 1.25-.56 1.25-1.25V10c0-.69-.56-1.25-1.25-1.25h-1.25c-.69 0-1.25.56-1.25 1.25v1.25c0 .69.56 1.25 1.25 1.25Zm0-2.5h1.25v1.25h-1.25V10Zm10 7.5h1.25c.69 0 1.25-.56 1.25-1.25V15c0-.69-.56-1.25-1.25-1.25h-1.25c-.69 0-1.25.56-1.25 1.25v1.25c0 .69.56 1.25 1.25 1.25Zm0-2.5h1.25v1.25h-1.25V15Zm0-2.5h1.25c.69 0 1.25-.56 1.25-1.25V10c0-.69-.56-1.25-1.25-1.25h-1.25c-.69 0-1.25.56-1.25 1.25v1.25c0 .69.56 1.25 1.25 1.25Zm0-2.5h1.25v1.25h-1.25V10Zm2.5-8.75h-2.5V.625a.625.625 0 0 0-1.25 0v.625h-6.25V.625a.625.625 0 0 0-1.25 0v.625h-2.5a2.5 2.5 0 0 0-2.5 2.5V17.5a2.5 2.5 0 0 0 2.5 2.5h13.75a2.5 2.5 0 0 0 2.5-2.5V3.75a2.5 2.5 0 0 0-2.5-2.5Zm1.25 16.25c0 .69-.56 1.25-1.25 1.25H3.125c-.69 0-1.25-.56-1.25-1.25V6.25h16.25V17.5Zm0-12.5H1.875V3.75c0-.69.56-1.25 1.25-1.25h2.5v.625a.625.625 0 0 0 1.25 0V2.5h6.25v.625a.625.625 0 0 0 1.25 0V2.5h2.5c.69 0 1.25.56 1.25 1.25V5Zm-8.75 12.5h1.25c.69 0 1.25-.56 1.25-1.25V15c0-.69-.56-1.25-1.25-1.25h-1.25c-.69 0-1.25.56-1.25 1.25v1.25c0 .69.56 1.25 1.25 1.25Zm0-2.5h1.25v1.25h-1.25V15Zm0-2.5h1.25c.69 0 1.25-.56 1.25-1.25V10c0-.69-.56-1.25-1.25-1.25h-1.25c-.69 0-1.25.56-1.25 1.25v1.25c0 .69.56 1.25 1.25 1.25Zm0-2.5h1.25v1.25h-1.25V10Zm-5 7.5h1.25c.69 0 1.25-.56 1.25-1.25V15c0-.69-.56-1.25-1.25-1.25h-1.25c-.69 0-1.25.56-1.25 1.25v1.25c0 .69.56 1.25 1.25 1.25Zm0-2.5h1.25v1.25h-1.25V15Z"/>
</svg>
