<svg xmlns="http://www.w3.org/2000/svg" width="15" height="18" fill="currentColor" viewBox="0 0 15 18">
  <path d="M7.5 0C5.51 0 3.603.762 2.197 2.117A7.099 7.099 0 0 0 0 7.23c0 3.436 3.865 7.562 7.113 10.42l.399.351.386-.361C11.492 14.302 15 10.76 15 7.229a7.1 7.1 0 0 0-2.197-5.112A7.645 7.645 0 0 0 7.5 0Zm0 16.47c-4.09-3.68-6.346-6.95-6.346-9.24 0-1.622.668-3.178 1.859-4.325A6.469 6.469 0 0 1 7.5 1.112c1.683 0 3.297.645 4.487 1.792a6.007 6.007 0 0 1 1.86 4.325c0 2.975-3.082 6.167-6.347 9.242Z"/>
  <path d="M7.5 4.449a2.97 2.97 0 0 0-1.603.468c-.474.306-.844.74-1.062 1.248a2.687 2.687 0 0 0-.164 1.606 2.75 2.75 0 0 0 .79 1.424 2.92 2.92 0 0 0 1.476.76c.56.108 1.14.053 1.667-.157.527-.21.977-.567 1.294-1.024a2.71 2.71 0 0 0 .486-1.545 2.73 2.73 0 0 0-.844-1.966 2.94 2.94 0 0 0-2.04-.814Zm0 4.448c-.342 0-.677-.098-.962-.281a1.683 1.683 0 0 1-.637-.749 1.612 1.612 0 0 1-.099-.963 1.65 1.65 0 0 1 .474-.855c.242-.233.55-.392.886-.456a1.791 1.791 0 0 1 1 .095c.316.126.587.34.777.614.19.274.292.597.292.927 0 .442-.183.867-.507 1.18a1.764 1.764 0 0 1-1.224.488Z"/>
</svg>
