<svg width="17" height="17" viewBox="0 0 17 17" xmlns="http://www.w3.org/2000/svg">
  <path fill-rule="evenodd" clip-rule="evenodd" d="M6 1.08301L6.11328 1.0918C6.37305 1.13141 6.5966 1.30559 6.69629 1.55469L8.36328 5.72168C8.49981 6.0634 8.3683 6.45421 8.05273 6.64355L6.58594 7.52246C7.29715 8.709 8.29015 9.70169 9.47656 10.4131L10.3564 8.94727C10.5458 8.6317 10.9366 8.50019 11.2783 8.63672L15.4453 10.3037C15.73 10.4176 15.917 10.6934 15.917 11V14.333C15.917 14.9739 15.6621 15.5888 15.209 16.042C14.7558 16.4952 14.1409 16.75 13.5 16.75C13.4848 16.75 13.4692 16.7499 13.4541 16.749C10.0208 16.5403 6.7828 15.0816 4.35059 12.6494C1.91837 10.2172 0.459714 6.97922 0.250977 3.5459C0.250056 3.53075 0.25 3.51518 0.25 3.5C0.25 2.85906 0.504795 2.24423 0.958008 1.79102C1.41121 1.3379 2.02613 1.08301 2.66699 1.08301H6ZM2.66699 2.58301C2.42395 2.58301 2.19045 2.67976 2.01855 2.85156C1.85172 3.0184 1.75649 3.24319 1.75098 3.47852C1.94274 6.53735 3.24358 9.42131 5.41113 11.5889C7.57845 13.7562 10.4621 15.0561 13.5205 15.248C13.7562 15.2428 13.9814 15.1485 14.1484 14.9814C14.3202 14.8096 14.417 14.576 14.417 14.333V11.5078L11.3145 10.2666L10.3936 11.8027C10.1927 12.1374 9.76804 12.2615 9.41797 12.0889C7.46063 11.1234 5.87657 9.53937 4.91113 7.58203C4.73849 7.23196 4.86256 6.80727 5.19727 6.60645L6.73242 5.68457L5.49219 2.58301H2.66699Z" />
  <path d="M11 3.58301C11.6409 3.58301 12.2558 3.8378 12.709 4.29102C13.1622 4.74423 13.417 5.35906 13.417 6C13.417 6.4141 13.0811 6.74982 12.667 6.75C12.2528 6.75 11.917 6.41421 11.917 6C11.917 5.75689 11.8203 5.52347 11.6484 5.35156C11.4765 5.17965 11.2431 5.08301 11 5.08301C10.5858 5.08301 10.25 4.74722 10.25 4.33301C10.2502 3.91894 10.5859 3.58301 11 3.58301Z" />
  <path d="M11 0.25C12.525 0.25 13.9871 0.856236 15.0654 1.93457C16.1438 3.0129 16.75 4.47501 16.75 6C16.75 6.41421 16.4142 6.75 16 6.75C15.5858 6.75 15.25 6.41421 15.25 6C15.25 4.87283 14.8019 3.79215 14.0049 2.99512C13.2079 2.19809 12.1272 1.75 11 1.75C10.5858 1.75 10.25 1.41421 10.25 1C10.25 0.585786 10.5858 0.25 11 0.25Z" />
</svg>
